<?xml version="1.0" encoding="iso-8859-1"?><!-- Generator: Adobe Illustrator 21.1.0, SVG Export Plug-In . SVG Version: 6.00 Build 0)  --><svg xmlns="http://www.w3.org/2000/svg" xmlns:xlink="http://www.w3.org/1999/xlink" viewBox="0 0 64 64" width="512px" height="512px"><g><path d="M54.535,14.121L45.88,5.465C44.936,4.521,43.68,4,42.343,4H13c-1.654,0-3,1.346-3,3v50c0,1.654,1.346,3,3,3h40c1.654,0,3-1.346,3-3V17.656C56,16.321,55.479,15.065,54.535,14.121z M44,6.498c0.165,0.11,0.321,0.237,0.465,0.381l8.656,8.656c0.142,0.142,0.268,0.298,0.378,0.465H45c-0.552,0-1-0.448-1-1V6.498z M54,57c0,0.552-0.448,1-1,1H13c-0.552,0-1-0.448-1-1V7c0-0.552,0.448-1,1-1h29v9c0,1.654,1.346,3,3,3h9V57z"/><path d="M15,50c-0.553,0-1,0.447-1,1v2c0,0.553,0.447,1,1,1s1-0.447,1-1v-2C16,50.447,15.553,50,15,50z"/><path d="M20,50c-0.553,0-1,0.447-1,1v2c0,0.553,0.447,1,1,1s1-0.447,1-1v-2C21,50.447,20.553,50,20,50z"/><path d="M25,50c-0.553,0-1,0.447-1,1v2c0,0.553,0.447,1,1,1s1-0.447,1-1v-2C26,50.447,25.553,50,25,50z"/><path d="M30,50c-0.553,0-1,0.447-1,1v2c0,0.553,0.447,1,1,1s1-0.447,1-1v-2C31,50.447,30.553,50,30,50z"/><path d="M35,50c-0.553,0-1,0.447-1,1v2c0,0.553,0.447,1,1,1s1-0.447,1-1v-2C36,50.447,35.553,50,35,50z"/><path d="M40,50c-0.553,0-1,0.447-1,1v2c0,0.553,0.447,1,1,1s1-0.447,1-1v-2C41,50.447,40.553,50,40,50z"/><path d="M45,50c-0.553,0-1,0.447-1,1v2c0,0.553,0.447,1,1,1s1-0.447,1-1v-2C46,50.447,45.553,50,45,50z"/><path d="M50,54c0.553,0,1-0.447,1-1v-2c0-0.553-0.447-1-1-1s-1,0.447-1,1v2C49,53.553,49.447,54,50,54z"/><path d="M27,28c-0.553,0-1,0.447-1,1s0.447,1,1,1h18c0.553,0,1-0.447,1-1s-0.447-1-1-1H27z"/><path d="M45,34H27c-0.553,0-1,0.447-1,1s0.447,1,1,1h18c0.553,0,1-0.447,1-1S45.553,34,45,34z"/><path d="M45,40H27c-0.553,0-1,0.447-1,1s0.447,1,1,1h18c0.553,0,1-0.447,1-1S45.553,40,45,40z"/><circle cx="22" cy="29" r="2"/><circle cx="22" cy="35" r="2"/><circle cx="22" cy="41" r="2"/></g></svg>